<?xml version="1.0" encoding="UTF-8" standalone="no"?>
<!DOCTYPE svg PUBLIC "-//W3C//DTD SVG 1.1//EN" "http://www.w3.org/Graphics/SVG/1.1/DTD/svg11.dtd">
<!-- Generated by graphviz version 2.40.1 (20161225.0304)
 -->
<!-- Title: G Pages: 1 -->
<svg width="316pt" height="470pt" viewBox="0.00 0.00 316.00 469.60" xmlns="http://www.w3.org/2000/svg" xmlns:xlink="http://www.w3.org/1999/xlink">
<g id="graph0" class="graph" transform="scale(1 1) rotate(0) translate(4 465.6)">
<title>G</title>
<polygon fill="#ffffff" stroke="transparent" points="-4,4 -4,-465.6 312,-465.6 312,4 -4,4"/>
<g id="clust1" class="cluster">
<title>cluster_1</title>
<polygon fill="none" stroke="#0000ff" points="8,-64 8,-290.4 300,-290.4 300,-64 8,-64"/>
<text text-anchor="middle" x="243.0357" y="-273.8" font-family="Times,serif" font-size="14.00" fill="#000000">aas-core-codegen</text>
</g>
<!-- details -->
<g id="node1" class="node">
<title>details</title>
<polygon fill="none" stroke="#000000" points="299.8889,-461.6 12.1111,-461.6 12.1111,-425.6 299.8889,-425.6 299.8889,-461.6"/>
<text text-anchor="middle" x="156" y="-439.4" font-family="Times,serif" font-size="14.00" fill="#000000">Details of Asset Administration Shell (the book)</text>
</g>
<!-- metamodel -->
<g id="node2" class="node">
<title>metamodel</title>
<polygon fill="none" stroke="#000000" points="258.8545,-389.7002 53.1455,-389.7002 53.1455,-298.2998 258.8545,-298.2998 258.8545,-389.7002"/>
<text text-anchor="middle" x="156" y="-373" font-family="Times,serif" font-size="14.00" fill="#000000">Meta-model in a subset of Python</text>
<text text-anchor="middle" x="156" y="-340.2" font-family="Times,serif" font-size="14.00" fill="#000000">* Data types</text>
<text text-anchor="middle" x="156" y="-323.4" font-family="Times,serif" font-size="14.00" fill="#000000">* Constraints</text>
<text text-anchor="middle" x="156" y="-306.6" font-family="Times,serif" font-size="14.00" fill="#000000">* Markers</text>
</g>
<!-- details&#45;&gt;metamodel -->
<g id="edge1" class="edge">
<title>details-&gt;metamodel</title>
<path fill="none" stroke="#000000" d="M156,-425.3318C156,-417.9907 156,-409.0967 156,-399.9211"/>
<polygon fill="#000000" stroke="#000000" points="159.5001,-399.9144 156,-389.9144 152.5001,-399.9144 159.5001,-399.9144"/>
</g>
<!-- parser -->
<g id="node3" class="node">
<title>parser</title>
<polygon fill="none" stroke="#000000" points="183,-257.6 129,-257.6 129,-221.6 183,-221.6 183,-257.6"/>
<text text-anchor="middle" x="156" y="-235.4" font-family="Times,serif" font-size="14.00" fill="#000000">Parser</text>
</g>
<!-- metamodel&#45;&gt;parser -->
<g id="edge2" class="edge">
<title>metamodel-&gt;parser</title>
<path fill="none" stroke="#000000" d="M156,-298.2086C156,-287.8916 156,-277.2354 156,-267.8852"/>
<polygon fill="#000000" stroke="#000000" points="159.5001,-267.6073 156,-257.6073 152.5001,-267.6074 159.5001,-267.6073"/>
</g>
<!-- intermediate -->
<g id="node4" class="node">
<title>intermediate</title>
<polygon fill="none" stroke="#000000" points="291.5128,-185.4019 20.4872,-185.4019 20.4872,-144.1981 291.5128,-144.1981 291.5128,-185.4019"/>
<text text-anchor="middle" x="156" y="-169" font-family="Times,serif" font-size="14.00" fill="#000000">Intermediate representation</text>
<text text-anchor="middle" x="156" y="-152.2" font-family="Times,serif" font-size="14.00" fill="#000000">(Meta-model-specific, but language agnostic)</text>
</g>
<!-- parser&#45;&gt;intermediate -->
<g id="edge3" class="edge">
<title>parser-&gt;intermediate</title>
<path fill="none" stroke="#000000" d="M156,-221.493C156,-213.8083 156,-204.6272 156,-195.9145"/>
<polygon fill="#000000" stroke="#000000" points="159.5001,-195.6515 156,-185.6515 152.5001,-195.6515 159.5001,-195.6515"/>
</g>
<!-- csharpgen -->
<g id="node5" class="node">
<title>csharpgen</title>
<polygon fill="none" stroke="#000000" points="104.1927,-108 15.8073,-108 15.8073,-72 104.1927,-72 104.1927,-108"/>
<text text-anchor="middle" x="60" y="-85.8" font-family="Times,serif" font-size="14.00" fill="#000000">C# generator</text>
</g>
<!-- intermediate&#45;&gt;csharpgen -->
<g id="edge4" class="edge">
<title>intermediate-&gt;csharpgen</title>
<path fill="none" stroke="#000000" d="M129.5135,-144.1626C117.6991,-134.9572 103.6924,-124.0437 91.3587,-114.4336"/>
<polygon fill="#000000" stroke="#000000" points="93.1741,-111.4112 83.1347,-108.0258 88.8717,-116.9329 93.1741,-111.4112"/>
</g>
<!-- javagen -->
<g id="node6" class="node">
<title>javagen</title>
<polygon fill="none" stroke="#000000" points="219.7297,-108 122.2703,-108 122.2703,-72 219.7297,-72 219.7297,-108"/>
<text text-anchor="middle" x="171" y="-85.8" font-family="Times,serif" font-size="14.00" fill="#000000">Java generator</text>
</g>
<!-- intermediate&#45;&gt;javagen -->
<g id="edge5" class="edge">
<title>intermediate-&gt;javagen</title>
<path fill="none" stroke="#000000" d="M160.1783,-143.964C161.7807,-135.9736 163.6365,-126.7191 165.354,-118.1547"/>
<polygon fill="#000000" stroke="#000000" points="168.8194,-118.6746 167.354,-108.1816 161.956,-117.2982 168.8194,-118.6746"/>
</g>
<!-- dot -->
<g id="node7" class="node">
<title>dot</title>
<polygon fill="none" stroke="#000000" points="292,-108 238,-108 238,-72 292,-72 292,-108"/>
<text text-anchor="middle" x="265" y="-85.8" font-family="Times,serif" font-size="14.00" fill="#000000">...</text>
</g>
<!-- intermediate&#45;&gt;dot -->
<g id="edge6" class="edge">
<title>intermediate-&gt;dot</title>
<path fill="none" stroke="#000000" d="M186.0733,-144.1626C199.7454,-134.7802 216.0035,-123.6233 230.2006,-113.8807"/>
<polygon fill="#000000" stroke="#000000" points="232.4676,-116.5699 238.7325,-108.0258 228.5068,-110.7982 232.4676,-116.5699"/>
</g>
<!-- csharpcode -->
<g id="node8" class="node">
<title>csharpcode</title>
<polygon fill="none" stroke="#000000" points="91.2664,-36 28.7336,-36 28.7336,0 91.2664,0 91.2664,-36"/>
<text text-anchor="middle" x="60" y="-13.8" font-family="Times,serif" font-size="14.00" fill="#000000">C# code</text>
</g>
<!-- csharpgen&#45;&gt;csharpcode -->
<g id="edge7" class="edge">
<title>csharpgen-&gt;csharpcode</title>
<path fill="none" stroke="#000000" d="M60,-71.8314C60,-64.131 60,-54.9743 60,-46.4166"/>
<polygon fill="#000000" stroke="#000000" points="63.5001,-46.4132 60,-36.4133 56.5001,-46.4133 63.5001,-46.4132"/>
</g>
<!-- javacode -->
<g id="node9" class="node">
<title>javacode</title>
<polygon fill="none" stroke="#000000" points="206.3033,-36 135.6967,-36 135.6967,0 206.3033,0 206.3033,-36"/>
<text text-anchor="middle" x="171" y="-13.8" font-family="Times,serif" font-size="14.00" fill="#000000">Java code</text>
</g>
<!-- javagen&#45;&gt;javacode -->
<g id="edge8" class="edge">
<title>javagen-&gt;javacode</title>
<path fill="none" stroke="#000000" d="M171,-71.8314C171,-64.131 171,-54.9743 171,-46.4166"/>
<polygon fill="#000000" stroke="#000000" points="174.5001,-46.4132 171,-36.4133 167.5001,-46.4133 174.5001,-46.4132"/>
</g>
</g>
</svg>