<?xml version="1.0" encoding="UTF-8" standalone="no"?>
<!DOCTYPE svg PUBLIC "-//W3C//DTD SVG 1.1//EN" "http://www.w3.org/Graphics/SVG/1.1/DTD/svg11.dtd">
<!-- Generated by graphviz version 2.40.1 (20161225.0304)
 -->
<!-- Title: %0 Pages: 1 -->
<svg width="307pt" height="449pt" viewBox="0.00 0.00 307.04 448.80" xmlns="http://www.w3.org/2000/svg" xmlns:xlink="http://www.w3.org/1999/xlink">
<g id="graph0" class="graph" transform="scale(1 1) rotate(0) translate(4 444.8)">
<title>%0</title>
<polygon fill="#ffffff" stroke="transparent" points="-4,4 -4,-444.8 303.0404,-444.8 303.0404,4 -4,4"/>
<!-- details -->
<g id="node1" class="node">
<title>details</title>
<polygon fill="none" stroke="#000000" points="299.235,-440.8 11.4572,-440.8 11.4572,-404.8 299.235,-404.8 299.235,-440.8"/>
<text text-anchor="middle" x="155.3461" y="-418.6" font-family="Times,serif" font-size="14.00" fill="#000000">Details of Asset Administration Shell (the book)</text>
</g>
<!-- metamodel -->
<g id="node2" class="node">
<title>metamodel</title>
<polygon fill="none" stroke="#000000" points="288.6943,-368.9003 21.9979,-368.9003 21.9979,-293.4997 288.6943,-293.4997 288.6943,-368.9003"/>
<text text-anchor="middle" x="155.3461" y="-352.2" font-family="Times,serif" font-size="14.00" fill="#000000">Meta-model in a subset of Python</text>
<text text-anchor="middle" x="155.3461" y="-335.4" font-family="Times,serif" font-size="14.00" fill="#000000">* Data types</text>
<text text-anchor="middle" x="155.3461" y="-318.6" font-family="Times,serif" font-size="14.00" fill="#000000">* Constraints</text>
<text text-anchor="middle" x="155.3461" y="-301.8" font-family="Times,serif" font-size="14.00" fill="#000000">* Markers (such as implementation-specific)</text>
</g>
<!-- details&#45;&gt;metamodel -->
<g id="edge1" class="edge">
<title>details-&gt;metamodel</title>
<path fill="none" stroke="#000000" d="M155.3461,-404.7028C155.3461,-397.2779 155.3461,-388.2971 155.3461,-379.2003"/>
<polygon fill="#000000" stroke="#000000" points="158.8462,-378.9571 155.3461,-368.9571 151.8462,-378.9572 158.8462,-378.9571"/>
</g>
<!-- parser -->
<g id="node3" class="node">
<title>parser</title>
<polygon fill="none" stroke="#000000" points="182.3461,-257.6 128.3461,-257.6 128.3461,-221.6 182.3461,-221.6 182.3461,-257.6"/>
<text text-anchor="middle" x="155.3461" y="-235.4" font-family="Times,serif" font-size="14.00" fill="#000000">Parser</text>
</g>
<!-- metamodel&#45;&gt;parser -->
<g id="edge2" class="edge">
<title>metamodel-&gt;parser</title>
<path fill="none" stroke="#000000" d="M155.3461,-293.4139C155.3461,-285.0114 155.3461,-276.2374 155.3461,-268.2712"/>
<polygon fill="#000000" stroke="#000000" points="158.8462,-268.0195 155.3461,-258.0196 151.8462,-268.0196 158.8462,-268.0195"/>
</g>
<!-- intermediate -->
<g id="node4" class="node">
<title>intermediate</title>
<polygon fill="none" stroke="#000000" points="290.8589,-185.4019 19.8333,-185.4019 19.8333,-144.1981 290.8589,-144.1981 290.8589,-185.4019"/>
<text text-anchor="middle" x="155.3461" y="-169" font-family="Times,serif" font-size="14.00" fill="#000000">Intermediate representation</text>
<text text-anchor="middle" x="155.3461" y="-152.2" font-family="Times,serif" font-size="14.00" fill="#000000">(Meta-model-specific, but language agnostic)</text>
</g>
<!-- parser&#45;&gt;intermediate -->
<g id="edge3" class="edge">
<title>parser-&gt;intermediate</title>
<path fill="none" stroke="#000000" d="M155.3461,-221.493C155.3461,-213.8083 155.3461,-204.6272 155.3461,-195.9145"/>
<polygon fill="#000000" stroke="#000000" points="158.8462,-195.6515 155.3461,-185.6515 151.8462,-195.6515 158.8462,-195.6515"/>
</g>
<!-- csharpgen -->
<g id="node5" class="node">
<title>csharpgen</title>
<polygon fill="none" stroke="#000000" points="88.5388,-108 .1534,-108 .1534,-72 88.5388,-72 88.5388,-108"/>
<text text-anchor="middle" x="44.3461" y="-85.8" font-family="Times,serif" font-size="14.00" fill="#000000">C# generator</text>
</g>
<!-- intermediate&#45;&gt;csharpgen -->
<g id="edge4" class="edge">
<title>intermediate-&gt;csharpgen</title>
<path fill="none" stroke="#000000" d="M124.721,-144.1626C110.798,-134.7802 94.2416,-123.6233 79.784,-113.8807"/>
<polygon fill="#000000" stroke="#000000" points="81.3444,-110.7117 71.0956,-108.0258 77.4325,-116.5166 81.3444,-110.7117"/>
</g>
<!-- javagen -->
<g id="node6" class="node">
<title>javagen</title>
<polygon fill="none" stroke="#000000" points="204.0758,-108 106.6164,-108 106.6164,-72 204.0758,-72 204.0758,-108"/>
<text text-anchor="middle" x="155.3461" y="-85.8" font-family="Times,serif" font-size="14.00" fill="#000000">Java generator</text>
</g>
<!-- intermediate&#45;&gt;javagen -->
<g id="edge5" class="edge">
<title>intermediate-&gt;javagen</title>
<path fill="none" stroke="#000000" d="M155.3461,-143.964C155.3461,-136.0614 155.3461,-126.9223 155.3461,-118.4373"/>
<polygon fill="#000000" stroke="#000000" points="158.8462,-118.1816 155.3461,-108.1816 151.8462,-118.1816 158.8462,-118.1816"/>
</g>
<!-- dot -->
<g id="node9" class="node">
<title>dot</title>
<polygon fill="none" stroke="#000000" points="276.3461,-108 222.3461,-108 222.3461,-72 276.3461,-72 276.3461,-108"/>
<text text-anchor="middle" x="249.3461" y="-85.8" font-family="Times,serif" font-size="14.00" fill="#000000">...</text>
</g>
<!-- intermediate&#45;&gt;dot -->
<g id="edge6" class="edge">
<title>intermediate-&gt;dot</title>
<path fill="none" stroke="#000000" d="M181.2808,-144.1626C192.849,-134.9572 206.5639,-124.0437 218.6407,-114.4336"/>
<polygon fill="#000000" stroke="#000000" points="221.0478,-116.9912 226.6934,-108.0258 216.6891,-111.5137 221.0478,-116.9912"/>
</g>
<!-- csharpcode -->
<g id="node7" class="node">
<title>csharpcode</title>
<polygon fill="none" stroke="#000000" points="75.6125,-36 13.0797,-36 13.0797,0 75.6125,0 75.6125,-36"/>
<text text-anchor="middle" x="44.3461" y="-13.8" font-family="Times,serif" font-size="14.00" fill="#000000">C# code</text>
</g>
<!-- csharpgen&#45;&gt;csharpcode -->
<g id="edge7" class="edge">
<title>csharpgen-&gt;csharpcode</title>
<path fill="none" stroke="#000000" d="M44.3461,-71.8314C44.3461,-64.131 44.3461,-54.9743 44.3461,-46.4166"/>
<polygon fill="#000000" stroke="#000000" points="47.8462,-46.4132 44.3461,-36.4133 40.8462,-46.4133 47.8462,-46.4132"/>
</g>
<!-- javacode -->
<g id="node8" class="node">
<title>javacode</title>
<polygon fill="none" stroke="#000000" points="190.6494,-36 120.0428,-36 120.0428,0 190.6494,0 190.6494,-36"/>
<text text-anchor="middle" x="155.3461" y="-13.8" font-family="Times,serif" font-size="14.00" fill="#000000">Java code</text>
</g>
<!-- javagen&#45;&gt;javacode -->
<g id="edge8" class="edge">
<title>javagen-&gt;javacode</title>
<path fill="none" stroke="#000000" d="M155.3461,-71.8314C155.3461,-64.131 155.3461,-54.9743 155.3461,-46.4166"/>
<polygon fill="#000000" stroke="#000000" points="158.8462,-46.4132 155.3461,-36.4133 151.8462,-46.4133 158.8462,-46.4132"/>
</g>
</g>
</svg>